<svg width="163" height="24" viewBox="0 0 163 24" fill="none" xmlns="http://www.w3.org/2000/svg">
<g id="stars">
<path id="Vector" d="M9.18739 0.802496L6.6751 6.76738L1.05418 7.72698C0.046186 7.89818 -0.357781 9.35336 0.373207 10.1868L4.43981 14.8272L3.47798 21.3822C3.30486 22.5671 4.37056 23.4546 5.26313 22.9005L10.2916 19.8054L15.32 22.9005C16.2126 23.4501 17.2783 22.5671 17.1051 21.3822L16.1433 14.8272L20.2099 10.1868C20.9409 9.35336 20.5369 7.89818 19.5289 7.72698L13.908 6.76738L11.3957 0.802496C10.9456 -0.26073 9.64137 -0.274246 9.18739 0.802496Z" fill="#FFE600"/>
<path id="Vector_2" d="M44.6442 0.802496L42.1319 6.76738L36.511 7.72698C35.503 7.89818 35.099 9.35336 35.83 10.1868L39.8966 14.8272L38.9348 21.3822C38.7616 22.5671 39.8273 23.4546 40.7199 22.9005L45.7483 19.8054L50.7768 22.9005C51.6694 23.4501 52.7351 22.5671 52.5619 21.3822L51.6001 14.8272L55.6667 10.1868C56.3977 9.35336 55.9937 7.89818 54.9857 7.72698L49.3648 6.76738L46.8525 0.802496C46.4024 -0.26073 45.0981 -0.274246 44.6442 0.802496Z" fill="#FFE600"/>
<path id="Vector_3" d="M80.101 0.802496L77.5887 6.76738L71.9678 7.72698C70.9598 7.89818 70.5558 9.35336 71.2868 10.1868L75.3534 14.8272L74.3916 21.3822C74.2184 22.5671 75.2841 23.4546 76.1767 22.9005L81.2051 19.8054L86.2336 22.9005C87.1261 23.4501 88.1919 22.5671 88.0187 21.3822L87.0569 14.8272L91.1235 10.1868C91.8545 9.35336 91.4505 7.89818 90.4425 7.72698L84.8216 6.76738L82.3093 0.802496C81.8592 -0.26073 80.5549 -0.274246 80.101 0.802496Z" fill="#FFE600"/>
<path id="Vector_4" d="M115.558 0.802496L113.045 6.76738L107.425 7.72698C106.417 7.89818 106.013 9.35336 106.744 10.1868L110.81 14.8272L109.848 21.3822C109.675 22.5671 110.741 23.4546 111.633 22.9005L116.662 19.8054L121.69 22.9005C122.583 23.4501 123.649 22.5671 123.476 21.3822L122.514 14.8272L126.58 10.1868C127.311 9.35336 126.907 7.89818 125.899 7.72698L120.278 6.76738L117.766 0.802496C117.316 -0.26073 116.012 -0.274246 115.558 0.802496Z" fill="#FFE600"/>
<path id="Vector_5" d="M151.015 0.802496L148.502 6.76738L142.881 7.72698C141.873 7.89818 141.469 9.35336 142.2 10.1868L146.267 14.8272L145.305 21.3822C145.132 22.5671 146.198 23.4546 147.09 22.9005L152.119 19.8054L157.147 22.9005C158.04 23.4501 159.105 22.5671 158.932 21.3822L157.97 14.8272L162.037 10.1868C162.768 9.35336 162.364 7.89818 161.356 7.72698L155.735 6.76738L153.223 0.802496C152.773 -0.26073 151.469 -0.274246 151.015 0.802496Z" fill="#FFE600"/>
</g>
</svg>
